# File created by Blade
# Date/Time:  Wed Jan 21 15:23:43 2015
# Frame Rate: 120.000 fps
#------------------------------------------------------
:FULLY-SPECIFIED
:DEGREES
775
root 9.790237 27.589113 -17.557506 -161.671235 3.774241 -193.509421
Spine 3.681913 3.319359 -15.995510
Head -20.151466 -3.764632 1.859956
LeftShoulder -3.847276 -26.993966 -0.371696
LeftArm -17.180312 46.602847 -82.291042
LeftForeArm 28.594876 -0.000000 53.388684
LeftHand 0.938112 -0.000000 -1.123352
LeftHandThumb1 -26.253704 0.000000 33.147579
RightShoulder -2.137686 -9.284818 4.272019
RightArm 18.203380 -32.313683 62.983601
RightForeArm -30.629141 -0.000000 24.944223
RightHand 4.267592 0.000000 5.409730
RightHandThumb1 -24.326973 -0.000000 -32.862282
LeftUpLeg -57.466200 11.120374 -22.614762
LeftLeg 74.798149 -0.000000 -0.000000
LeftFoot -55.746056 18.612348 -15.785460
LeftToeBase 25.182525 -0.000000 -0.000000
RightUpLeg -22.374108 -42.267749 -39.637468
RightLeg -4.185867 -0.000000 0.000000
RightFoot 7.002905 -21.540019 15.823998
RightToeBase 30.725149 -0.000000 -0.000000
776
root 9.790412 27.589229 -17.562024 -161.684599 3.787607 -193.489524
Spine 3.696981 3.337061 -16.003688
Head -20.165369 -3.809140 1.897624
LeftShoulder -3.896636 -26.937376 -0.362123
LeftArm -17.099993 46.741481 -82.226659
LeftForeArm 28.536148 0.000000 53.441948
LeftHand 0.787403 -0.000000 -0.909121
LeftHandThumb1 -26.253704 0.000000 33.147579
RightShoulder -2.151104 -9.309014 4.268897
RightArm 18.276310 -32.340834 62.955944
RightForeArm -30.614477 -0.000000 24.912203
RightHand 4.244939 -0.000000 5.432838
RightHandThumb1 -24.326973 -0.000000 -32.862282
LeftUpLeg -57.454294 11.143467 -22.598359
LeftLeg 74.808337 -0.000000 -0.000000
LeftFoot -55.749039 18.615348 -15.796537
LeftToeBase 25.207876 -0.000000 -0.000000
RightUpLeg -22.383960 -42.262848 -39.609769
RightLeg -4.173702 -0.000000 0.000000
RightFoot 6.992410 -21.519633 15.695532
RightToeBase 31.274155 -0.000000 -0.000000
777
root 9.790932 27.590936 -17.566389 -161.693785 3.805928 -193.476819
Spine 3.703689 3.359080 -16.027544
Head -20.179430 -3.825021 1.944009
LeftShoulder -3.906372 -26.932161 -0.344101
LeftArm -17.077245 46.779602 -82.217992
LeftForeArm 28.522031 -0.000000 53.440606
LeftHand 0.738133 -0.000000 -0.891418
LeftHandThumb1 -26.253704 0.000000 33.147579
RightShoulder -2.150009 -9.316967 4.273758
RightArm 18.304731 -32.356848 62.950784
RightForeArm -30.625631 -0.000000 24.883018
RightHand 4.236814 -0.000000 5.414752
RightHandThumb1 -24.326973 -0.000000 -32.862282
LeftUpLeg -57.439281 11.166535 -22.589057
LeftLeg 74.803182 -0.000000 -0.000000
LeftFoot -55.758547 18.624814 -15.796240
LeftToeBase 25.176040 -0.000000 -0.000000
RightUpLeg -22.397631 -42.242423 -39.592144
RightLeg -4.160959 -0.000000 0.000000
RightFoot 6.996641 -21.528551 15.685193
RightToeBase 30.987807 -0.000000 -0.000000
778
root 9.792858 27.592796 -17.571265 -161.700332 3.819043 -193.459058
Spine 3.701357 3.373225 -16.055707
Head -20.189275 -3.848941 2.018519
LeftShoulder -3.899995 -26.965554 -0.304634
LeftArm -17.107789 46.729781 -82.298381
LeftForeArm 28.487444 -0.000000 53.359178
LeftHand 0.772184 -0.000000 -0.876415
LeftHandThumb1 -26.253704 0.000000 33.147579
RightShoulder -2.144699 -9.327687 4.295292
RightArm 18.332047 -32.375867 62.927663
RightForeArm -30.617261 -0.000000 24.859771
RightHand 4.216658 -0.000000 5.442795
RightHandThumb1 -24.326973 -0.000000 -32.862282
LeftUpLeg -57.426932 11.180161 -22.567231
LeftLeg 74.801398 -0.000000 -0.000000
LeftFoot -55.759752 18.642359 -15.797252
LeftToeBase 25.191639 -0.000000 -0.000000
RightUpLeg -22.411177 -42.243922 -39.558125
RightLeg -4.155694 -0.000000 0.000000
RightFoot 7.010716 -21.527549 15.649993
RightToeBase 31.062220 -0.000000 -0.000000
779
root 9.794792 27.594910 -17.575695 -161.711063 3.832350 -193.440651
Spine 3.706927 3.397230 -16.077616
Head -20.197709 -3.862422 2.077695
LeftShoulder -3.878505 -27.012873 -0.277342
LeftArm -17.158762 46.679311 -82.360630
LeftForeArm 28.524856 -0.000000 53.319344
LeftHand 0.819261 -0.000000 -0.955341
LeftHandThumb1 -26.253704 0.000000 33.147579
RightShoulder -2.134512 -9.322990 4.312923
RightArm 18.316645 -32.389219 62.915069
RightForeArm -30.643367 -0.000000 24.873169
RightHand 4.246587 -0.000000 5.462776
RightHandThumb1 -24.326973 -0.000000 -32.862282
LeftUpLeg -57.410358 11.197199 -22.544512
LeftLeg 74.799571 -0.000000 -0.000000
LeftFoot -55.761386 18.647435 -15.805154
LeftToeBase 25.143846 -0.000000 -0.000000
RightUpLeg -22.429040 -42.245214 -39.522996
RightLeg -4.140935 -0.000000 0.000000
RightFoot 7.007573 -21.509555 15.651069
RightToeBase 31.280319 -0.000000 -0.000000
780
root 9.797394 27.597537 -17.580274 -161.712057 3.832297 -193.430751
Spine 3.702500 3.412661 -16.101340
Head -20.207662 -3.896082 2.112456
LeftShoulder -3.830337 -27.048522 -0.297060
LeftArm -17.240275 46.656606 -82.374586
LeftForeArm 28.535036 -0.000000 53.367497
LeftHand 0.853755 -0.000000 -1.030452
LeftHandThumb1 -26.253704 0.000000 33.147579
RightShoulder -2.134045 -9.308336 4.312787
RightArm 18.309036 -32.379706 62.949622
RightForeArm -30.664094 -0.000000 24.824741
RightHand 4.259533 0.000000 5.528478
RightHandThumb1 -24.326973 -0.000000 -32.862282
LeftUpLeg -57.393014 11.190978 -22.523787
LeftLeg 74.788473 -0.000000 -0.000000
LeftFoot -55.760505 18.641820 -15.809110
LeftToeBase 25.126680 -0.000000 -0.000000
RightUpLeg -22.429708 -42.248744 -39.503687
RightLeg -4.133385 -0.000000 0.000000
RightFoot 7.002672 -21.500650 15.634209
RightToeBase 31.059985 -0.000000 -0.000000
781
root 9.800346 27.600489 -17.584845 -161.713473 3.838208 -193.419604
Spine 3.688688 3.430732 -16.130679
Head -20.195752 -3.909058 2.151181
LeftShoulder -3.820512 -27.066828 -0.298470
LeftArm -17.269094 46.676136 -82.383203
LeftForeArm 28.534346 -0.000000 53.379302
LeftHand 0.849074 0.000000 -1.059455
LeftHandThumb1 -26.253704 0.000000 33.147579
RightShoulder -2.123901 -9.315662 4.323757
RightArm 18.304295 -32.367998 62.958969
RightForeArm -30.704658 0.000000 24.800183
RightHand 4.281585 -0.000000 5.558728
RightHandThumb1 -24.326973 -0.000000 -32.862282
LeftUpLeg -57.373369 11.187824 -22.501958
LeftLeg 74.771715 -0.000000 -0.000000
LeftFoot -55.751967 18.665773 -15.801126
LeftToeBase 25.084621 -0.000000 -0.000000
RightUpLeg -22.444809 -42.268989 -39.469622
RightLeg -4.127238 -0.000000 0.000000
RightFoot 7.011160 -21.474345 15.639388
RightToeBase 31.238284 -0.000000 -0.000000
782
root 9.803040 27.603996 -17.590001 -161.718678 3.846605 -193.412898
Spine 3.684387 3.452203 -16.166656
Head -20.207968 -3.933066 2.197290
LeftShoulder -3.817117 -27.075946 -0.294371
LeftArm -17.278878 46.677290 -82.393018
LeftForeArm 28.544059 -0.000000 53.381064
LeftHand 0.836298 -0.000000 -1.063582
LeftHandThumb1 -26.253704 0.000000 33.147579
RightShoulder -2.121646 -9.297423 4.344352
RightArm 18.283515 -32.375670 62.965029
RightForeArm -30.685066 -0.000000 24.776170
RightHand 4.297892 -0.000000 5.601406
RightHandThumb1 -24.326973 -0.000000 -32.862282
LeftUpLeg -57.351654 11.184055 -22.483100
LeftLeg 74.755389 -0.000000 -0.000000
LeftFoot -55.772930 18.672211 -15.832141
LeftToeBase 25.114615 -0.000000 -0.000000
RightUpLeg -22.449003 -42.272773 -39.452695
RightLeg -4.122176 -0.000000 0.000000
RightFoot 7.014043 -21.463883 15.775007
RightToeBase 30.704555 -0.000000 -0.000000
783
root 9.807294 27.607376 -17.593920 -161.716094 3.845163 -193.402481
Spine 3.664330 3.471535 -16.187975
Head -20.179053 -3.948559 2.203199
LeftShoulder -3.798128 -27.065238 -0.311112
LeftArm -17.280364 46.742907 -82.389447
LeftForeArm 28.364890 -0.000000 53.376159
LeftHand 0.831012 -0.000000 -0.919385
LeftHandThumb1 -26.253704 0.000000 33.147579
RightShoulder -2.107544 -9.293695 4.338351
RightArm 18.262842 -32.365242 63.004388
RightForeArm -30.596171 -0.000000 24.722039
RightHand 4.333434 -0.000000 5.471358
RightHandThumb1 -24.326973 -0.000000 -32.862282
LeftUpLeg -57.337803 11.171552 -22.456935
LeftLeg 74.740924 -0.000000 -0.000000
LeftFoot -55.764788 18.708655 -15.820300
LeftToeBase 25.134322 -0.000000 -0.000000
RightUpLeg -22.445851 -42.273541 -39.430012
RightLeg -4.125462 -0.000000 0.000000
RightFoot 6.988993 -21.452417 15.625360
RightToeBase 31.311546 -0.000000 -0.000000
784
root 9.810883 27.611375 -17.596867 -161.712281 3.847600 -193.396547
Spine 3.652177 3.490179 -16.219922
Head -20.195457 -3.980951 2.228594
LeftShoulder -3.824554 -27.030091 -0.298375
LeftArm -17.183396 46.768002 -82.345277
LeftForeArm 28.341983 -0.000000 53.342312
LeftHand 0.893144 -0.000000 -0.929797
LeftHandThumb1 -26.253704 0.000000 33.147579
RightShoulder -2.100152 -9.288915 4.350065
RightArm 18.238884 -32.342733 63.023745
RightForeArm -30.592774 -0.000000 24.709764
RightHand 4.373383 -0.000000 5.534357
RightHandThumb1 -24.326973 -0.000000 -32.862282
LeftUpLeg -57.332955 11.109864 -22.425470
LeftLeg 74.738725 -0.000000 -0.000000
LeftFoot -55.761193 18.702222 -15.937747
LeftToeBase 25.121439 -0.000000 -0.000000
RightUpLeg -22.453286 -42.273009 -39.411697
RightLeg -4.115723 -0.000000 0.000000
RightFoot 6.976031 -21.457549 15.630736
RightToeBase 30.857941 -0.000000 -0.000000
785
root 9.816177 27.615304 -17.600943 -161.711545 3.845462 -193.386553
Spine 3.642145 3.501803 -16.246077
Head -20.214690 -4.006316 2.247590
LeftShoulder -3.838317 -27.025453 -0.301869
LeftArm -17.158246 46.770548 -82.320304
LeftForeArm 28.368542 0.000000 53.349930
LeftHand 0.897996 0.000000 -0.980513
LeftHandThumb1 -26.253704 0.000000 33.147579
RightShoulder -2.094105 -9.281277 4.349590
RightArm 18.233496 -32.351492 63.048274
RightForeArm -30.621397 -0.000000 24.672924
RightHand 4.410066 -0.000000 5.655213
RightHandThumb1 -24.326973 -0.000000 -32.862282
LeftUpLeg -57.317034 11.092021 -22.394616
LeftLeg 74.723903 -0.000000 -0.000000
LeftFoot -55.761564 18.713575 -15.957569
LeftToeBase 25.169464 -0.000000 -0.000000
RightUpLeg -22.458567 -42.291578 -39.382100
RightLeg -4.112788 -0.000000 0.000000
RightFoot 6.975689 -21.439588 15.677853
RightToeBase 31.228942 -0.000000 -0.000000
786
root 9.821147 27.619154 -17.605066 -161.712651 3.845031 -193.373873
Spine 3.630372 3.517417 -16.263790
Head -20.231397 -4.023817 2.247375
LeftShoulder -3.846920 -27.014788 -0.302092
LeftArm -17.127613 46.763481 -82.306769
LeftForeArm 28.374905 -0.000000 53.333996
LeftHand 0.940017 0.000000 -1.005025
LeftHandThumb1 -26.253704 0.000000 33.147579
RightShoulder -2.094135 -9.298965 4.353700
RightArm 18.271049 -32.379773 63.032217
RightForeArm -30.540597 -0.000000 24.632549
RightHand 4.388590 -0.000000 5.616029
RightHandThumb1 -24.326973 -0.000000 -32.862282
LeftUpLeg -57.291210 11.094550 -22.367217
LeftLeg 74.697272 -0.000000 -0.000000
LeftFoot -55.758881 18.740684 -15.933109
LeftToeBase 25.141620 -0.000000 -0.000000
RightUpLeg -22.445856 -42.286281 -39.362328
RightLeg -4.123275 -0.000000 0.000000
RightFoot 6.961528 -21.434246 15.688768
RightToeBase 30.923415 -0.000000 -0.000000
